<svg width="21" height="21" viewBox="0 0 21 21" fill="none" xmlns="http://www.w3.org/2000/svg">
<path d="M20.1562 17.9297C20.7422 18.5547 20.7422 19.5312 20.1562 20.1562C19.5312 20.7422 18.5547 20.7422 17.9297 20.1562L13.2812 15.4688C11.6797 16.5234 9.72656 17.0703 7.61719 16.7969C4.02344 16.2891 1.13281 13.3594 0.664062 9.80469C0 4.49219 4.49219 0 9.80469 0.664062C13.3594 1.13281 16.2891 4.02344 16.7969 7.61719C17.0703 9.72656 16.5234 11.6797 15.4688 13.2422L20.1562 17.9297ZM3.71094 8.71094C3.71094 11.4844 5.9375 13.7109 8.71094 13.7109C11.4453 13.7109 13.7109 11.4844 13.7109 8.71094C13.7109 5.97656 11.4453 3.71094 8.71094 3.71094C5.9375 3.71094 3.71094 5.97656 3.71094 8.71094Z" fill="#3E3232"/>
</svg>
